# xmcd
#
# Track frame offsets:
#	150
#	13607
#	25880
#	37680
#	45687
#	56517
#	68645
#	80840
#	93205
#	106990
#	120665
#	131805
#	143525
#	155457
#	167200
#	180645
#	192570
#	205950
#	216867
#	229422
#	242240
#
# Disc length: 3359 seconds
#
# Revision: 1
# Processed by: cddbd v1.5.2PL0 Copyright (c) Steve Scherf et al.
# Submitted via: audiograbber 1.83.01
#
DISCID=260d1d15
DTITLE=Penguins - Best Of  
DYEAR=1996
DGENRE=Oldies
TTITLE0=Earth Angel  (Version 1)
TTITLE1=Ookey Ook
TTITLE2=Love Will Make Your Mind Go Wild
TTITLE3=Hey Senorita
TTITLE4=Don't Do It
TTITLE5=It Only Happens With You
TTITLE6=Walkin' Down Broadway
TTITLE7=Be Mine Or Be A Fool
TTITLE8=My Trouble Are Not At End
TTITLE9=Devi That I See
TTITLE10=Promises, Promises, Promises
TTITLE11=She's Gone, Gone
TTITLE12=Dealer Of Dreams
TTITLE13=Ice
TTITLE14=Peace Of Mind
TTITLE15=Cool Baby Cool
TTITLE16=A Christmas Prayer
TTITLE17=Jingle Jangle
TTITLE18=Will You Be Mine
TTITLE19=Earth Angel  (Version 2)
TTITLE20=The Sound Of Your Voice
EXTD=
EXTT0=
EXTT1=
EXTT2=
EXTT3=
EXTT4=
EXTT5=
EXTT6=
EXTT7=
EXTT8=
EXTT9=
EXTT10=
EXTT11=
EXTT12=
EXTT13=
EXTT14=
EXTT15=
EXTT16=
EXTT17=
EXTT18=
EXTT19=
EXTT20=
PLAYORDER=
